<?xml version="1.0" standalone="no"?>
<!DOCTYPE svg PUBLIC "-//W3C//DTD SVG 20010904//EN"
 "http://www.w3.org/TR/2001/REC-SVG-20010904/DTD/svg10.dtd">
<svg version="1.0" xmlns="http://www.w3.org/2000/svg"
 width="260.000000pt" height="260.000000pt" viewBox="0 0 260.000000 260.000000"
 preserveAspectRatio="xMidYMid meet">
<metadata>
Created by potrace 1.14, written by Peter Selinger 2001-2017
</metadata>
<g transform="translate(0.000000,260.000000) scale(0.100000,-0.100000)"
fill="#000000" stroke="none">
<path d="M1423 2032 c-34 -22 -38 -56 -38 -314 1 -252 1 -256 26 -304 32 -63
88 -102 156 -110 46 -6 54 -4 77 19 16 16 26 37 26 55 0 34 -36 72 -68 72 -12
0 -31 9 -41 19 -18 18 -19 38 -20 272 -2 244 -2 254 -23 276 -22 23 -70 31
-95 15z"/>
<path d="M895 1991 c-76 -22 -154 -62 -200 -103 -45 -39 -98 -115 -90 -128 3
-5 -1 -20 -9 -32 -26 -40 -47 -110 -50 -171 -12 -203 144 -393 399 -484 169
-60 416 -56 577 10 141 58 274 159 352 271 65 93 65 96 -5 31 -121 -115 -243
-186 -379 -222 -67 -18 -287 -25 -360 -12 -204 38 -377 144 -442 274 -37 72
-50 125 -32 125 9 0 13 8 11 22 -2 12 1 40 7 63 37 133 149 236 323 296 32 11
59 19 61 19 21 -2 42 2 42 9 0 20 -153 -15 -225 -51 -88 -46 -167 -130 -201
-216 -11 -30 -13 -31 -9 -8 10 48 53 112 108 162 79 72 178 113 331 138 48 8
41 16 -10 10 -90 -9 -109 -12 -168 -28 -91 -25 -195 -85 -258 -148 -32 -32
-58 -53 -58 -48 0 6 26 36 59 69 61 61 189 134 256 147 19 3 35 10 35 15 0 5
-1 9 -2 8 -2 0 -30 -8 -63 -18z m-238 -363 c-3 -8 -6 -5 -6 6 -1 11 2 17 5 13
3 -3 4 -12 1 -19z m-1 -42 c0 -14 -3 -23 -7 -20 -6 3 -6 22 0 42 3 10 7 -2 7
-22z"/>
<path d="M978 2003 c6 -2 18 -2 25 0 6 3 1 5 -13 5 -14 0 -19 -2 -12 -5z"/>
<path d="M1143 1963 c9 -2 23 -2 30 0 6 3 -1 5 -18 5 -16 0 -22 -2 -12 -5z"/>
<path d="M908 1854 c-14 -7 -29 -21 -33 -31 -13 -34 -6 -362 9 -396 18 -40 57
-82 98 -103 45 -23 134 -23 184 -1 39 18 43 18 74 2 55 -29 158 -26 193 5 5 4
-6 29 -22 56 -17 26 -31 57 -31 67 0 14 -4 17 -17 12 -28 -12 -57 -7 -70 11
-8 11 -13 51 -13 106 0 81 -2 91 -25 113 -31 32 -75 33 -102 3 -18 -19 -22
-38 -25 -121 -3 -106 -9 -117 -60 -117 -43 0 -49 24 -47 194 1 163 -5 189 -43
202 -37 12 -43 12 -70 -2z"/>
<path d="M2062 1648 c-36 -49 -47 -57 -101 -72 -68 -19 -78 -28 -28 -26 50 3
57 1 51 -14 -3 -8 -15 -11 -30 -8 -14 2 -24 0 -24 -7 0 -6 6 -11 13 -11 7 0 4
-7 -7 -15 -21 -16 -23 -15 34 -18 11 -1 20 3 20 8 1 6 15 24 32 42 26 27 37
32 65 27 36 -6 46 10 13 21 -25 8 -25 16 1 67 33 66 8 69 -39 6z"/>
<path d="M1830 1434 c-116 -119 -293 -213 -460 -243 -19 -3 -99 -6 -177 -6
-134 0 -145 -5 -48 -21 53 -9 156 -9 227 -1 168 20 365 134 479 279 41 51 33
48 -21 -8z"/>
<path d="M2015 1415 c-75 -118 -234 -254 -370 -315 -59 -27 -149 -59 -185 -65
-14 -3 -36 -7 -50 -11 -14 -3 -52 -8 -85 -11 -100 -9 -77 -16 30 -10 301 19
547 172 680 423 32 61 23 55 -20 -11z"/>
<path d="M496 699 c37 -133 40 -139 69 -139 21 0 29 8 42 38 l15 37 12 -35
c14 -44 55 -54 74 -18 10 19 62 191 62 204 0 2 -9 4 -20 4 -24 0 -32 -15 -55
-104 -21 -76 -22 -75 -50 27 -8 31 -20 57 -25 57 -5 0 -17 -26 -25 -57 -28
-102 -29 -103 -50 -27 -23 88 -31 104 -55 104 -18 0 -18 -4 6 -91z"/>
<path d="M839 783 c-32 -8 -47 -70 -40 -165 4 -54 92 -78 131 -36 16 18 20 35
20 94 0 66 -2 74 -26 93 -25 20 -49 24 -85 14z m66 -107 c0 -44 -4 -61 -17
-69 -29 -19 -48 8 -48 68 0 59 5 67 40 63 24 -3 25 -6 25 -62z"/>
<path d="M982 777 c-5 -7 -9 -57 -8 -112 1 -93 3 -100 21 -103 18 -2 21 3 22
33 1 44 11 56 41 49 18 -5 22 -13 22 -46 0 -35 2 -39 23 -36 17 2 22 10 22 33
0 17 -3 40 -7 52 -4 12 -3 25 1 28 17 10 5 87 -15 98 -27 16 -111 18 -122 4z
m100 -50 c12 -19 -4 -37 -32 -37 -33 0 -45 23 -24 44 15 15 43 11 56 -7z"/>
<path d="M1146 778 c-3 -7 -4 -58 -3 -113 l2 -100 72 -3 c59 -2 71 0 69 12 -3
25 -15 30 -56 27 -22 -1 -40 1 -41 6 0 4 -1 46 -2 93 -2 72 -5 85 -20 88 -9 2
-19 -2 -21 -10z"/>
<path d="M1305 769 c-3 -13 -5 -64 -3 -114 l3 -90 39 -3 c87 -7 115 25 110
128 -4 69 -25 91 -93 98 -46 4 -50 3 -56 -19z m103 -88 c3 -56 -9 -81 -39 -81
-21 0 -21 0 -21 70 0 81 -1 79 30 71 25 -7 27 -12 30 -60z"/>
<path d="M1545 778 c-2 -7 -3 -58 -2 -113 l2 -100 59 -3 c69 -4 88 2 80 22 -4
10 -22 16 -52 18 l-47 3 0 90 c0 77 -3 90 -18 93 -9 2 -19 -2 -22 -10z"/>
<path d="M1704 775 c-7 -18 3 -35 21 -35 15 0 28 27 19 41 -8 14 -34 11 -40
-6z"/>
<path d="M1773 782 c-6 -4 -10 -49 -9 -112 1 -98 2 -105 21 -105 18 0 20 7 21
70 1 39 2 75 3 80 3 19 43 -56 55 -103 9 -35 17 -48 33 -50 20 -3 21 0 20 110
-2 106 -3 113 -22 113 -17 0 -20 -6 -19 -39 l0 -38 -19 26 c-22 31 -69 57 -84
48z"/>
<path d="M1939 788 c-1 -2 -2 -54 -3 -116 -1 -108 0 -113 19 -110 16 2 21 12
23 43 3 38 18 59 34 49 4 -3 16 -25 27 -49 16 -37 25 -45 46 -45 l25 0 -30 60
c-16 33 -30 64 -30 70 0 6 11 26 25 44 54 71 13 78 -51 9 -26 -29 -44 -42 -45
-33 0 8 -2 28 -2 45 -1 19 -8 31 -19 33 -10 2 -19 2 -19 0z"/>
<path d="M1707 723 c-2 -5 -3 -42 -3 -83 1 -68 3 -75 21 -75 18 0 20 7 21 70
0 39 -2 76 -4 83 -5 13 -28 17 -35 5z"/>
</g>
</svg>
